<svg xmlns="http://www.w3.org/2000/svg" xmlns:xlink="http://www.w3.org/1999/xlink" width="500" zoomAndPan="magnify" viewBox="0 0 375 374.999991" height="500" preserveAspectRatio="xMidYMid meet" version="1.0"><defs><g/><clipPath id="a733088b8f"><rect x="0" width="300" y="0" height="267"/></clipPath></defs><rect x="-37.5" width="450" fill="#ffffff" y="-37.499999" height="449.999989" fill-opacity="1"/><rect x="-37.5" width="450" fill="#e4e2dd" y="-37.499999" height="449.999989" fill-opacity="1"/><g transform="matrix(1, 0, 0, 1, 37, 53)"><g clip-path="url(#a733088b8f)"><g fill="#1e1e1e" fill-opacity="1"><g transform="translate(0.785084, 181.552897)"><g><path d="M 46.675781 -158.585938 C 28.375 -158.585938 15.644531 -144.265625 15.644531 -127.824219 C 15.644531 -111.382812 27.582031 -99.449219 52.242188 -86.71875 L 58.34375 -83.535156 C 56.222656 -88.574219 55.957031 -90.960938 55.957031 -96 C 55.957031 -113.238281 68.683594 -126.761719 86.71875 -126.761719 C 98.652344 -126.761719 111.648438 -122.253906 123.316406 -112.707031 L 123.316406 -124.90625 L 83.003906 -156.730469 L 83.003906 -145.589844 C 68.949219 -154.34375 58.34375 -158.585938 46.675781 -158.585938 Z M 55.691406 -64.441406 C 64.441406 -56.222656 73.195312 -50.121094 81.945312 -46.410156 C 76.90625 -63.117188 69.746094 -68.421875 42.695312 -81.945312 C 37.65625 -84.332031 31.027344 -88.839844 23.335938 -95.203125 L 23.070312 -95.203125 Z M 88.308594 34.476562 C 112.441406 34.476562 131.269531 12.730469 131.269531 -7.957031 C 131.269531 -22.011719 126.761719 -32.355469 109.523438 -45.878906 L 77.703125 -71.070312 L 77.4375 -71.070312 C 87.25 -60.730469 90.960938 -52.507812 90.960938 -41.105469 C 90.960938 -18.296875 73.722656 2.652344 48.53125 2.652344 C 36.597656 2.652344 26.785156 -0.796875 7.425781 -12.730469 L 7.160156 -12.730469 L 44.289062 16.972656 C 58.078125 28.109375 73.722656 34.210938 88.308594 34.476562 Z M 3.183594 -27.84375 C 17.769531 -14.851562 24.929688 -11.402344 41.636719 -6.894531 Z M 3.183594 -27.84375 "/></g></g></g><g fill="#1e1e1e" fill-opacity="1"><g transform="translate(126.219959, 181.552897)"><g><path d="M 130.742188 -158.585938 L 67.625 -158.585938 L 67.625 0 L 58.609375 0 L 98.121094 31.824219 L 107.402344 31.824219 L 107.402344 -126.761719 L 170.519531 -126.761719 L 170.519531 -135.515625 L 130.742188 -167.867188 Z M -4.242188 -158.585938 L 36.066406 -126.761719 L 58.609375 -126.761719 L 58.609375 -158.585938 Z M -4.242188 -158.585938 "/></g></g></g></g></g></svg>