<svg xmlns="http://www.w3.org/2000/svg" xmlns:xlink="http://www.w3.org/1999/xlink" width="500" zoomAndPan="magnify" viewBox="0 0 375 374.999991" height="500" preserveAspectRatio="xMidYMid meet" version="1.0"><defs><g/></defs><rect x="-37.5" width="450" fill="#ffffff" y="-37.499999" height="449.999989" fill-opacity="1"/><rect x="-37.5" width="450" fill="#1e1e1e" y="-37.499999" height="449.999989" fill-opacity="1"/><g fill="#e4e2dd" fill-opacity="1"><g transform="translate(37.897282, 234.749985)"><g><path d="M 46.640625 -158.46875 C 28.355469 -158.46875 15.636719 -144.160156 15.636719 -127.730469 C 15.636719 -111.300781 27.558594 -99.375 52.203125 -86.652344 L 58.300781 -83.472656 C 56.179688 -88.507812 55.914062 -90.894531 55.914062 -95.929688 C 55.914062 -113.152344 68.632812 -126.667969 86.652344 -126.667969 C 98.578125 -126.667969 111.5625 -122.164062 123.222656 -112.625 L 123.222656 -124.8125 L 82.945312 -156.613281 L 82.945312 -145.484375 C 68.898438 -154.230469 58.300781 -158.46875 46.640625 -158.46875 Z M 55.648438 -64.394531 C 64.394531 -56.179688 73.140625 -50.085938 81.882812 -46.375 C 76.847656 -63.070312 69.695312 -68.371094 42.664062 -81.882812 C 37.628906 -84.269531 31.003906 -88.773438 23.320312 -95.132812 L 23.054688 -95.132812 Z M 88.246094 34.449219 C 112.359375 34.449219 131.171875 12.71875 131.171875 -7.949219 C 131.171875 -21.996094 126.667969 -32.328125 109.445312 -45.84375 L 77.644531 -71.019531 L 77.378906 -71.019531 C 87.183594 -60.683594 90.894531 -52.46875 90.894531 -41.074219 C 90.894531 -18.285156 73.667969 2.648438 48.496094 2.648438 C 36.570312 2.648438 26.765625 -0.796875 7.421875 -12.71875 L 7.15625 -12.71875 L 44.253906 16.960938 C 58.035156 28.089844 73.667969 34.183594 88.246094 34.449219 Z M 3.179688 -27.824219 C 17.753906 -14.839844 24.910156 -11.394531 41.605469 -6.890625 Z M 3.179688 -27.824219 "/></g></g></g><g fill="#e4e2dd" fill-opacity="1"><g transform="translate(163.240772, 234.749985)"><g><path d="M 130.644531 -158.46875 L 67.574219 -158.46875 L 67.574219 0 L 58.5625 0 L 98.050781 31.800781 L 107.324219 31.800781 L 107.324219 -126.667969 L 170.394531 -126.667969 L 170.394531 -135.414062 L 130.644531 -167.742188 Z M -4.238281 -158.46875 L 36.039062 -126.667969 L 58.5625 -126.667969 L 58.5625 -158.46875 Z M -4.238281 -158.46875 "/></g></g></g></svg>